<mxfile host="app.diagrams.net" agent="Mozilla/5.0 (Windows NT 10.0; Win64; x64) AppleWebKit/537.36 (KHTML, like Gecko) Chrome/130.0.0.0 Safari/537.36 QuarkPC/2.3.2.266" version="26.1.1">
  <diagram name="第 1 页" id="PbXtJcbuzFpNh_3USNkM">
    <mxGraphModel dx="1877" dy="534" grid="1" gridSize="10" guides="1" tooltips="1" connect="1" arrows="1" fold="1" page="1" pageScale="1" pageWidth="827" pageHeight="1169" math="0" shadow="0">
      <root>
        <mxCell id="0" />
        <mxCell id="1" parent="0" />
        <mxCell id="CKeZx60hblOPZKR_OW_L-27" value="" style="rounded=0;whiteSpace=wrap;html=1;" vertex="1" parent="1">
          <mxGeometry x="120" y="280" width="510" height="370" as="geometry" />
        </mxCell>
        <mxCell id="CKeZx60hblOPZKR_OW_L-1" value="&lt;font style=&quot;vertical-align: inherit;&quot;&gt;&lt;font style=&quot;vertical-align: inherit;&quot;&gt;字节码文件&lt;/font&gt;&lt;/font&gt;" style="shape=note;size=20;whiteSpace=wrap;html=1;" vertex="1" parent="1">
          <mxGeometry x="-60" y="80" width="80" height="140" as="geometry" />
        </mxCell>
        <mxCell id="CKeZx60hblOPZKR_OW_L-2" value="" style="shape=singleArrow;whiteSpace=wrap;html=1;arrowWidth=0.4;arrowSize=0.4;" vertex="1" parent="1">
          <mxGeometry x="40" y="130" width="80" height="60" as="geometry" />
        </mxCell>
        <mxCell id="CKeZx60hblOPZKR_OW_L-4" value="" style="verticalLabelPosition=bottom;verticalAlign=top;html=1;shape=mxgraph.basic.rect;fillColor2=none;strokeWidth=1;size=20;indent=5;fillColor=#FFFF00;" vertex="1" parent="1">
          <mxGeometry x="130" y="80" width="460" height="140" as="geometry" />
        </mxCell>
        <mxCell id="CKeZx60hblOPZKR_OW_L-18" value="" style="edgeStyle=orthogonalEdgeStyle;rounded=0;orthogonalLoop=1;jettySize=auto;html=1;" edge="1" parent="1" source="CKeZx60hblOPZKR_OW_L-6" target="CKeZx60hblOPZKR_OW_L-12">
          <mxGeometry relative="1" as="geometry" />
        </mxCell>
        <mxCell id="CKeZx60hblOPZKR_OW_L-6" value="&lt;font style=&quot;vertical-align: inherit;&quot;&gt;&lt;font style=&quot;vertical-align: inherit;&quot;&gt;&lt;font style=&quot;vertical-align: inherit;&quot;&gt;&lt;font style=&quot;vertical-align: inherit;&quot;&gt;&lt;font style=&quot;vertical-align: inherit;&quot;&gt;&lt;font style=&quot;vertical-align: inherit; line-height: 90%;&quot;&gt;j加载阶段&lt;/font&gt;&lt;/font&gt;&lt;/font&gt;&lt;/font&gt;&lt;/font&gt;&lt;/font&gt;" style="rounded=0;whiteSpace=wrap;html=1;align=center;" vertex="1" parent="1">
          <mxGeometry x="140" y="290" width="90" height="120" as="geometry" />
        </mxCell>
        <mxCell id="CKeZx60hblOPZKR_OW_L-9" value="引导类加载器" style="rounded=0;whiteSpace=wrap;html=1;" vertex="1" parent="1">
          <mxGeometry x="140" y="420" width="90" height="60" as="geometry" />
        </mxCell>
        <mxCell id="CKeZx60hblOPZKR_OW_L-10" value="扩展类加载器" style="rounded=0;whiteSpace=wrap;html=1;" vertex="1" parent="1">
          <mxGeometry x="140" y="490" width="90" height="60" as="geometry" />
        </mxCell>
        <mxCell id="CKeZx60hblOPZKR_OW_L-11" value="扩展类加载器" style="rounded=0;whiteSpace=wrap;html=1;" vertex="1" parent="1">
          <mxGeometry x="140" y="560" width="90" height="60" as="geometry" />
        </mxCell>
        <mxCell id="CKeZx60hblOPZKR_OW_L-24" style="edgeStyle=orthogonalEdgeStyle;rounded=0;orthogonalLoop=1;jettySize=auto;html=1;entryX=0;entryY=0.5;entryDx=0;entryDy=0;" edge="1" parent="1" source="CKeZx60hblOPZKR_OW_L-12" target="CKeZx60hblOPZKR_OW_L-23">
          <mxGeometry relative="1" as="geometry" />
        </mxCell>
        <mxCell id="CKeZx60hblOPZKR_OW_L-12" value="链接阶段" style="rounded=0;whiteSpace=wrap;html=1;align=center;" vertex="1" parent="1">
          <mxGeometry x="324" y="290" width="86" height="120" as="geometry" />
        </mxCell>
        <mxCell id="CKeZx60hblOPZKR_OW_L-13" value="验证" style="rounded=0;whiteSpace=wrap;html=1;" vertex="1" parent="1">
          <mxGeometry x="324" y="420" width="90" height="60" as="geometry" />
        </mxCell>
        <mxCell id="CKeZx60hblOPZKR_OW_L-14" value="准备" style="rounded=0;whiteSpace=wrap;html=1;" vertex="1" parent="1">
          <mxGeometry x="324" y="490" width="90" height="60" as="geometry" />
        </mxCell>
        <mxCell id="CKeZx60hblOPZKR_OW_L-15" value="解析" style="rounded=0;whiteSpace=wrap;html=1;" vertex="1" parent="1">
          <mxGeometry x="324" y="560" width="90" height="60" as="geometry" />
        </mxCell>
        <mxCell id="CKeZx60hblOPZKR_OW_L-20" value="&lt;b&gt;&lt;font style=&quot;vertical-align: inherit;&quot;&gt;&lt;font style=&quot;vertical-align: inherit; font-size: 24px;&quot;&gt;类加载器子系统&lt;/font&gt;&lt;/font&gt;&lt;/b&gt;" style="text;html=1;align=center;verticalAlign=middle;resizable=0;points=[];autosize=1;strokeColor=none;fillColor=none;" vertex="1" parent="1">
          <mxGeometry x="265" y="45" width="190" height="40" as="geometry" />
        </mxCell>
        <mxCell id="CKeZx60hblOPZKR_OW_L-21" style="edgeStyle=orthogonalEdgeStyle;rounded=0;orthogonalLoop=1;jettySize=auto;html=1;exitX=0.5;exitY=0;exitDx=0;exitDy=0;entryX=0.519;entryY=0.989;entryDx=0;entryDy=0;entryPerimeter=0;" edge="1" parent="1" source="CKeZx60hblOPZKR_OW_L-12" target="CKeZx60hblOPZKR_OW_L-4">
          <mxGeometry relative="1" as="geometry" />
        </mxCell>
        <mxCell id="CKeZx60hblOPZKR_OW_L-22" style="edgeStyle=orthogonalEdgeStyle;rounded=0;orthogonalLoop=1;jettySize=auto;html=1;exitX=0.5;exitY=0;exitDx=0;exitDy=0;entryX=0.119;entryY=0.983;entryDx=0;entryDy=0;entryPerimeter=0;" edge="1" parent="1" source="CKeZx60hblOPZKR_OW_L-6" target="CKeZx60hblOPZKR_OW_L-4">
          <mxGeometry relative="1" as="geometry" />
        </mxCell>
        <mxCell id="CKeZx60hblOPZKR_OW_L-23" value="初始化阶段" style="rounded=0;whiteSpace=wrap;html=1;align=center;" vertex="1" parent="1">
          <mxGeometry x="500" y="290" width="90" height="120" as="geometry" />
        </mxCell>
        <mxCell id="CKeZx60hblOPZKR_OW_L-26" style="edgeStyle=orthogonalEdgeStyle;rounded=0;orthogonalLoop=1;jettySize=auto;html=1;entryX=0.903;entryY=1.023;entryDx=0;entryDy=0;entryPerimeter=0;" edge="1" parent="1" source="CKeZx60hblOPZKR_OW_L-23" target="CKeZx60hblOPZKR_OW_L-4">
          <mxGeometry relative="1" as="geometry" />
        </mxCell>
        <mxCell id="CKeZx60hblOPZKR_OW_L-28" value="类的加载过程" style="text;html=1;align=center;verticalAlign=middle;resizable=0;points=[];autosize=1;strokeColor=none;fillColor=none;fontSize=24;" vertex="1" parent="1">
          <mxGeometry x="275" y="643" width="170" height="40" as="geometry" />
        </mxCell>
      </root>
    </mxGraphModel>
  </diagram>
</mxfile>
